<svg xmlns="http://www.w3.org/2000/svg" viewBox="0 0 420 420" role="img" aria-labelledby="title desc">
  <title id="title">Hakurei shrine inspired workshop card</title>
  <desc id="desc">A restrained anime shrine-maiden inspired workshop illustration with red ribbons, yin-yang orb, gohei paper streamers and danmaku dots.</desc>
  <defs>
    <linearGradient id="paper" x1="0" y1="0" x2="1" y2="1">
      <stop offset="0" stop-color="#fff7f0"/>
      <stop offset=".52" stop-color="#fffdf8"/>
      <stop offset="1" stop-color="#f7efe5"/>
    </linearGradient>
    <linearGradient id="seal" x1="0" y1="0" x2="1" y2="1">
      <stop offset="0" stop-color="#cf3f51"/>
      <stop offset="1" stop-color="#8f2638"/>
    </linearGradient>
    <filter id="softShadow" x="-20%" y="-20%" width="140%" height="140%">
      <feDropShadow dx="0" dy="18" stdDeviation="18" flood-color="#2f2a3b" flood-opacity=".16"/>
    </filter>
  </defs>
  <rect width="420" height="420" rx="36" fill="#fffaf2"/>
  <path d="M54 60h312v300H54z" rx="18" fill="url(#paper)" filter="url(#softShadow)"/>
  <path d="M78 78h264v264H78z" fill="none" stroke="#d8b8aa" stroke-width="2" stroke-dasharray="8 12"/>
  <circle cx="210" cy="184" r="86" fill="#2f2a3b"/>
  <path d="M210 98c47 0 86 39 86 86s-39 86-86 86c16-28 16-58 0-86s-16-58 0-86Z" fill="#fffaf2"/>
  <circle cx="210" cy="144" r="14" fill="#fffaf2"/>
  <circle cx="210" cy="224" r="14" fill="#2f2a3b"/>
  <path d="M148 104c-30 18-46 48-45 91l42-14 37 28c4-44-8-79-34-105Z" fill="url(#seal)"/>
  <path d="M272 104c30 18 46 48 45 91l-42-14-37 28c-4-44 8-79 34-105Z" fill="url(#seal)"/>
  <path d="M128 290h164" stroke="#2f2a3b" stroke-width="16" stroke-linecap="round"/>
  <path d="M142 290l50-70 39 70" fill="none" stroke="#cf3f51" stroke-width="16" stroke-linecap="round" stroke-linejoin="round"/>
  <path d="M268 158l56 132" stroke="#6f4f38" stroke-width="8" stroke-linecap="round"/>
  <path d="M292 182l34-16-8 40 34-16-9 42" fill="none" stroke="#fff7f0" stroke-width="12" stroke-linecap="round" stroke-linejoin="round"/>
  <path d="M120 330h180" stroke="#cf3f51" stroke-width="8" stroke-linecap="round"/>
  <circle cx="90" cy="132" r="10" fill="#f0c6d0"/>
  <circle cx="334" cy="104" r="8" fill="#9fd8c6"/>
  <circle cx="340" cy="286" r="12" fill="#f4cf76"/>
  <circle cx="84" cy="274" r="7" fill="#cf3f51"/>
  <text x="210" y="374" fill="#875e6d" font-family="Georgia, serif" font-size="18" text-anchor="middle">Hakurei debug atelier</text>
</svg>
